<svg version="1.1" id="_x31_" xmlns="http://www.w3.org/2000/svg" xmlns:xlink="http://www.w3.org/1999/xlink" x="0px" y="0px"
	 viewBox="0 0 16 16" style="enable-background:new 0 0 16 16;" xml:space="preserve">
<style type="text/css">
	.st0{fill:#757575;}
</style>
<path id="_x32_" class="st0" d="M16,7.3C16,6.5,14.8,6,14,6H9l1.5-4.3c0-0.1,0-0.1,0-0.2c0-0.3-0.1-0.6-0.3-0.7L9.4,0L4.4,5.6
	C4.2,5.9,4,6.2,4,6.6v7C4,14.4,4.7,15,5.5,15h6.8c0.6,0,1.2-0.4,1.4-0.9l2.3-4.9C16,9.1,16,8.9,16,8.7V7.3 M0,15h3V7H0V15z"/>
</svg>
