<svg version="1.1" id="_x31_" xmlns="http://www.w3.org/2000/svg" xmlns:xlink="http://www.w3.org/1999/xlink" x="0px" y="0px"
	 viewBox="0 0 16 16" style="enable-background:new 0 0 16 16;" xml:space="preserve">
<style type="text/css">
	.st0{fill:#ffffff;}
</style>
<path id="_x32_" class="st0" d="M16,8.7V7.3c0-0.2,0-0.3-0.1-0.5l-2.3-4.9C13.4,1.4,12.9,1,12.2,1H5.5C4.7,1,4,1.6,4,2.4v7
	c0,0.4,0.2,0.7,0.4,1L9.4,16l0.8-0.7c0.2-0.2,0.3-0.5,0.3-0.7c0-0.1,0-0.2,0-0.2L9,10h5C14.8,10,16,9.5,16,8.7 M0,9h3V1H0V9z"/>
</svg>
