<svg xmlns="http://www.w3.org/2000/svg" width="26" height="24" viewBox="0 0 26 24"><path fill="#606060" d="M1 0h24v22H1z"/><path fill="#FFF" d="M23 20H3V2h15l5 5"/><g fill="#333"><path d="M12.7 16.8H11l-.5-1.6H8l-.5 1.6H5.7l2.5-7h1.9l2.6 7zM10.1 14l-.8-2.4c-.1-.2-.1-.4-.1-.6 0 .2-.1.4-.1.6L8.3 14h1.8zM14.4 16.2v.6h-1.5V9.4h1.5v3.2c.4-.6.9-.9 1.6-.9.6 0 1.1.2 1.5.7.4.5.5 1 .5 1.8s-.2 1.5-.6 2c-.4.5-1 .8-1.6.8-.6-.1-1-.3-1.4-.8zm0-2.1v.5c0 .3.1.602.3.8s.4.302.7.302c.4 0 .6-.102.8-.4.2-.302.3-.702.3-1.202 0-.4-.1-.7-.3-1-.2-.2-.4-.3-.8-.3-.3 0-.6.1-.8.3-.1.3-.2.6-.2 1z"/></g></svg>