<?xml version="1.0" encoding="utf-8"?>
<!-- Generator: Adobe Illustrator 25.2.3, SVG Export Plug-In . SVG Version: 6.00 Build 0)  -->
<svg version="1.1" id="Capa_1" xmlns="http://www.w3.org/2000/svg" xmlns:xlink="http://www.w3.org/1999/xlink" x="0px" y="0px"
	 viewBox="0 0 756 160" style="enable-background:new 0 0 756 160;" xml:space="preserve">
<style type="text/css">
	.st0{fill:#2DB7B0;}
	.st1{fill:#1A1A1A;}
</style>
<g>
	<path class="st0" d="M101.7,113.9c-0.5,0.3-1,0.5-1.6,0.6c-1,0.3-2.2,0.7-3.8,1.1s-3.3,0.7-5.2,1c-2,0.3-3.9,0.4-5.9,0.4
		c-5.4,0-9.7-1.5-12.8-4.4c-3-2.7-4.6-6.6-4.6-10.6V39.2c0-1.9-0.2-3.9-0.6-5.8c-0.4-1.8-1.1-3.5-2.2-5c-1-1.5-2.5-2.8-4.1-3.6
		c-2.1-1-4.3-1.5-6.6-1.4c-4.9,0-8.4,1.6-10.5,4.9s-3.2,7.5-3.4,12.7v1.9h13.8v12.2H40.5V116H24.8V55.1h-10V42.9h10v-4.3
		c0-9,2.5-16,7.6-21.1s12.3-7.6,21.8-7.6c4.4-0.1,8.8,0.5,13,1.9c3.4,1,6.6,2.9,9.2,5.3c2.4,2.3,4.3,5.1,5.4,8.2
		c1.2,3.4,1.8,6.9,1.8,10.5v58.5c0,1,0.1,2,0.4,2.9c0.3,1,0.8,2,1.4,2.8c1.2,1.8,3.3,2.9,5.5,2.9c0.9,0,1.8-0.1,2.7-0.3
		c1-0.2,1.8-0.4,2.7-0.6c1-0.3,1.9-0.6,2.9-0.9L101.7,113.9z"/>
	<path class="st0" d="M144.7,117.4c-5.5,0.1-10.9-1-15.9-3.1c-4.6-1.9-8.8-4.8-12.3-8.4c-3.4-3.5-6.1-7.7-7.9-12.3
		c-1.9-4.7-2.8-9.8-2.8-14.9c-0.1-10.2,3.7-20,10.7-27.5c3.5-3.6,7.7-6.5,12.3-8.5c5.1-2.1,10.6-3.2,16.1-3.1
		c5.4-0.1,10.8,1,15.8,3.2c4.5,2,8.7,4.8,12.1,8.4c3.3,3.5,6,7.7,7.7,12.2c1.8,4.6,2.7,9.5,2.7,14.5c0,1.1,0,2.2-0.1,3.2
		s-0.2,1.8-0.3,2.5h-60.1c0.4,6.1,3.1,11.7,7.4,16c4.1,3.9,9.5,6.1,15.2,6.1c2.1,0,4.2-0.3,6.2-0.8c2-0.5,3.9-1.3,5.7-2.3
		c1.7-1,3.3-2.2,4.6-3.7c1.3-1.4,2.4-3,3.2-4.7l13.5,3.9c-2.8,5.8-7.2,10.6-12.8,13.8C159.6,115.7,152.7,117.4,144.7,117.4z
		 M167.5,72.9c-0.3-3-1.1-6-2.4-8.7c-1.2-2.5-2.9-4.9-4.9-6.8c-2-1.9-4.4-3.4-7-4.4c-2.7-1.1-5.6-1.6-8.5-1.6
		c-2.9,0-5.7,0.5-8.4,1.6c-2.6,1.1-4.9,2.5-7,4.4c-2.1,1.9-3.7,4.2-4.9,6.8c-1.2,2.8-2,5.7-2.3,8.7H167.5z"/>
	<path class="st0" d="M201.7,41L220,66.7l1.3,2.4l1.3-2.4L240.8,41h16.5l-27.4,37.6l27.7,37.4h-16.5l-18.5-25.5l-1.3-2.3l-1.3,2.3
		L201.5,116H185l27.7-37.4L185.3,41H201.7z"/>
	<path class="st0" d="M270.7,133.6c1.4,0.3,2.8,0.5,4.2,0.7c1.1,0.2,2.3,0.3,3.4,0.3c1.1,0,2.2-0.3,3.2-0.8c1.1-0.7,2.1-1.7,2.8-2.8
		c1.2-1.8,2.2-3.7,2.9-5.7c1-2.4,2.2-5.6,3.5-9.4L260,41h16.2l23.2,61.1L320,41h15l-34,92.3c-1.5,4.3-4.3,8.1-8,10.8
		c-3.8,2.9-8.6,4.4-14.6,4.4c-1.1,0-2.3-0.1-3.6-0.2c-1.4-0.2-2.8-0.5-4.2-0.9v-13.8H270.7z"/>
	<path class="st1" d="M373.7,116.7c-4.8,0.1-9.6-1-13.9-3.1c-4.1-2-7.8-4.9-10.8-8.4c-3.1-3.6-5.5-7.7-7-12.2
		c-1.7-4.6-2.5-9.6-2.5-14.5c0-5.1,0.9-10.3,2.6-15.1c1.6-4.5,4-8.7,7.2-12.3c3-3.5,6.8-6.3,11-8.3c4.4-2.1,9.2-3.2,14.1-3.1
		c5.6-0.1,11.1,1.4,15.8,4.3c4.5,2.9,8.4,6.7,11.3,11.2V41h13.9v72.8c0.1,5-0.9,10-3,14.5c-2,4.2-4.8,7.8-8.4,10.7
		c-3.8,3-8.1,5.3-12.7,6.7c-5.1,1.6-10.4,2.3-15.8,2.3c-8.3,0-15.2-1.4-20.7-4.2c-5.5-2.8-10.2-6.8-13.8-11.8l8.9-8.3
		c2.8,4,6.7,7.1,11.1,9.2c4.6,2.1,9.6,3.2,14.6,3.2c3.1,0,6.2-0.4,9.2-1.3c2.8-0.8,5.4-2.2,7.7-4c2.2-1.9,4-4.2,5.2-6.9
		c1.3-3.1,2-6.5,1.9-9.9v-11.5c-2.6,4.5-6.4,8.2-11,10.6C384,115.5,378.9,116.7,373.7,116.7z M378.8,104c2.4,0,4.7-0.4,6.9-1.2
		c4.3-1.6,8.1-4.4,10.9-8c1.3-1.7,2.3-3.7,2.9-5.7V69.5c-0.9-2.3-2.2-4.5-3.7-6.5c-1.5-1.9-3.2-3.7-5.2-5.1c-1.9-1.4-4-2.5-6.2-3.4
		c-2.1-0.8-4.3-1.2-6.6-1.2c-3.2-0.1-6.4,0.7-9.2,2.2c-2.7,1.5-5.1,3.5-7,5.9c-1.9,2.5-3.4,5.2-4.4,8.2c-1.1,3-1.6,6.3-1.6,9.5
		c0,3.3,0.6,6.6,1.8,9.7c1.1,2.9,2.8,5.6,4.9,7.9c2.1,2.2,4.6,4,7.4,5.4C372.6,103.4,375.7,104,378.8,104L378.8,104z"/>
	<path class="st1" d="M467.9,117.4c-5.5,0.1-11-1-16-3.2c-4.6-2-8.7-4.9-12.1-8.5c-3.4-3.6-6-7.8-7.7-12.4c-3.6-9.5-3.6-20.1,0-29.6
		c1.7-4.6,4.4-8.8,7.8-12.4c3.5-3.6,7.6-6.5,12.2-8.5c10.1-4.3,21.5-4.3,31.6,0c4.6,2,8.7,4.9,12.2,8.5c3.4,3.6,6.1,7.8,7.8,12.4
		c3.6,9.5,3.6,20.1,0,29.6c-1.7,4.6-4.4,8.8-7.8,12.4c-3.5,3.6-7.6,6.5-12.2,8.5C478.7,116.4,473.3,117.5,467.9,117.4z M445.5,78.7
		c0,3.4,0.6,6.8,1.7,10c1,2.9,2.6,5.7,4.7,8c2,2.2,4.4,4,7.1,5.3c5.6,2.5,12,2.5,17.6,0c2.7-1.3,5.1-3.1,7.1-5.4
		c2-2.4,3.6-5.1,4.7-8c1.1-3.2,1.7-6.6,1.7-10c0-3.4-0.6-6.8-1.7-10c-1-3-2.6-5.7-4.7-8.1c-2-2.3-4.4-4.1-7.1-5.4
		c-5.6-2.6-12-2.5-17.5,0.1c-2.7,1.3-5.1,3.2-7.1,5.4c-2.1,2.4-3.7,5.1-4.8,8.1C446.1,71.9,445.5,75.3,445.5,78.7L445.5,78.7z"/>
	<g>
		<path class="st0" d="M547.7,41h7.3l-7.6,35.3c3-4.2,6.7-7.6,11-10c4.3-2.4,8.6-3.7,13-3.7c4.6,0,7.9,1.3,9.9,3.8
			c2,2.6,3,6.1,3,10.5c0,2.8-0.4,6.1-1.2,9.9l-6.9,32.9h-7.3l6.7-31.4c0.6-3.1,1-5.8,1-8.2c0-7.3-3.1-10.9-9.2-10.9
			c-1.9,0-4,0.4-6,1.2c-2.1,0.8-4.1,2-6.1,3.4c-2,1.4-3.8,3.1-5.5,5.1c-1.7,1.9-3.1,4.1-4.2,6.4l-7.2,34.4H531L547.7,41z"/>
		<path class="st0" d="M614.8,120.9c-3.5,0-6.5-0.6-9.2-1.8c-2.7-1.2-5-2.9-6.8-5.1c-1.8-2.2-3.2-4.7-4.2-7.6c-1-2.9-1.5-6-1.5-9.3
			c0-4.5,0.9-8.8,2.6-12.9c1.7-4.1,4.1-7.8,7.1-11c3-3.2,6.6-5.8,10.7-7.7c4.1-1.9,8.6-2.9,13.4-2.9c2.4,0,4.8,0.3,7,1
			c2.2,0.6,4.1,1.6,5.7,2.9c1.6,1.3,2.9,2.8,3.8,4.7c0.9,1.9,1.4,4.1,1.4,6.5c0,5.5-2.4,9.7-7.3,12.5c-4.9,2.8-12.5,4.2-22.7,4.2
			c-2,0-4.2,0-6.5-0.1c-2.3-0.1-4.9-0.2-7.6-0.4c-0.1,0.6-0.1,1.1-0.2,1.6c0,0.5-0.1,1-0.1,1.5c0,2.4,0.3,4.8,1,7
			c0.6,2.2,1.6,4.1,2.9,5.8c1.3,1.7,2.9,3,4.9,4c1.9,1,4.2,1.5,6.8,1.5c1.7,0,3.5-0.3,5.3-0.8c1.8-0.5,3.5-1.2,5.1-2.1
			c1.6-0.9,3.1-2,4.5-3.3c1.4-1.3,2.5-2.7,3.5-4.3l6,1.8c-1.3,2.1-2.9,4-4.7,5.8c-1.9,1.8-3.9,3.3-6.2,4.5c-2.3,1.3-4.6,2.2-7.1,2.9
			C619.9,120.6,617.4,120.9,614.8,120.9z M626.2,68.3c-3.2,0-6.2,0.6-8.9,1.7c-2.7,1.2-5,2.7-7.1,4.5c-2.1,1.9-3.8,4-5.3,6.5
			c-1.4,2.4-2.5,5-3.2,7.6c2.6,0.1,5,0.3,7.2,0.4c2.2,0.1,4.3,0.2,6.3,0.2c4.2,0,7.8-0.3,10.8-0.9c3-0.6,5.3-1.4,7.1-2.4
			c1.8-1,3.1-2.2,3.9-3.7c0.8-1.4,1.2-3,1.2-4.6c0-3.2-1.2-5.6-3.6-7.1S629.5,68.3,626.2,68.3z"/>
		<path class="st0" d="M659.6,120.5c-2.7,0-4.7-0.7-6.3-2.1c-1.5-1.4-2.3-3.3-2.3-5.8c0-0.4,0-0.9,0.1-1.4c0.1-0.5,0.2-1,0.3-1.6
			L665.9,41h7.3l-14,66.1c-0.1,0.4-0.1,0.7-0.2,1c0,0.3-0.1,0.6-0.1,1c0,3.2,1.7,4.7,5.1,4.7c0.8,0,1.7-0.1,2.8-0.3
			c1.1-0.2,2.1-0.5,3.1-0.9l-0.2,5.9c-1.4,0.6-3.1,1-5.1,1.4C662.7,120.3,661,120.5,659.6,120.5z"/>
		<path class="st0" d="M689.5,63.6h6.5l-2.3,10.9c2.9-3.5,6.3-6.4,10.3-8.6c4-2.2,8-3.3,12.1-3.3c3.1,0,5.9,0.6,8.4,1.9
			c2.5,1.3,4.6,3,6.3,5.2c1.7,2.2,3,4.7,3.9,7.6c0.9,2.9,1.4,5.9,1.4,9c0,4.4-0.8,8.7-2.5,12.8c-1.7,4.2-3.9,7.9-6.8,11.1
			c-2.9,3.2-6.2,5.8-10,7.8c-3.8,1.9-7.8,2.9-11.9,2.9c-4.5,0-8.3-1.2-11.2-3.6c-2.9-2.4-5-5.5-6.3-9.1l-7.3,34.7h-7.3L689.5,63.6z
			 M704.2,114.4c3.2,0,6.3-0.8,9.3-2.4c3-1.6,5.5-3.7,7.7-6.3c2.2-2.6,3.9-5.4,5.2-8.6c1.3-3.2,1.9-6.4,1.9-9.7
			c0-2.5-0.4-4.9-1.1-7.1c-0.7-2.2-1.8-4.2-3.1-5.8c-1.4-1.7-3-3-4.9-3.9c-1.9-1-4-1.5-6.4-1.5c-1.7,0-3.6,0.4-5.7,1.1
			c-2.1,0.8-4,1.8-6,3c-1.9,1.3-3.7,2.7-5.2,4.4c-1.5,1.7-2.7,3.5-3.4,5.3l-3.7,17.3c0.4,2,1,3.9,1.9,5.6c0.9,1.7,2,3.2,3.3,4.5
			c1.3,1.3,2.8,2.2,4.5,3C700.4,114.1,702.2,114.4,704.2,114.4z"/>
	</g>
</g>
</svg>
