<?xml version="1.0" encoding="utf-8"?>
<!-- Generator: Adobe Illustrator 23.1.0, SVG Export Plug-In . SVG Version: 6.00 Build 0)  -->
<svg version="1.1" id="Capa_1" xmlns="http://www.w3.org/2000/svg" xmlns:xlink="http://www.w3.org/1999/xlink" x="0px" y="0px"
	 viewBox="0 0 582 540" style="enable-background:new 0 0 582 540;" xml:space="preserve">
<style type="text/css">
	.st0{opacity:0.2;fill:#2DB7B0;}
	.st1{opacity:0.9;fill:#2DB7B0;}
	.st2{opacity:0.7;fill:#2DB7B0;}
	.st3{fill:#CA3A6B;}
	.st4{opacity:0.5;fill:#CA3A6B;}
	.st5{fill:#2DB7B0;}
	.st6{fill:#FFFFFF;}
	.st7{fill:#05293D;}
	.st8{fill:#F2F2F2;}
	.st9{opacity:0.4;enable-background:new    ;}
	.st10{opacity:0.4;fill:#05293D;enable-background:new    ;}
	.st11{opacity:0.73;fill:#05293D;enable-background:new    ;}
	.st12{opacity:0.1;fill:#05293D;}
	.st13{fill:#FFFFFF;stroke:#2DB7B0;stroke-width:2;stroke-miterlimit:10;}
	.st14{opacity:0.6;fill:#2DB7B0;}
	.st15{opacity:0.5;fill:#2DB7B0;}
	.st16{fill:#FFFFFF;stroke:#2DB7B0;stroke-width:3;stroke-miterlimit:10;}
</style>
<g>
	<path class="st0" d="M338.3,449.2l99.7-85.2H147.8l99.7,85.2c3.6,3.1,8.2,4.8,13,4.8h64.8C330.1,454,334.7,452.3,338.3,449.2z"/>
	<rect x="146.9" y="181" class="st1" width="291" height="183"/>
	<path class="st0" d="M290.8,58.1L147,181h290.3L293.4,58.1C292.7,57.5,291.6,57.5,290.8,58.1z"/>
	<path class="st2" d="M27.4,275.7L147,364V181L27.4,269.3C25.2,270.9,25.2,274.1,27.4,275.7z"/>
	<path class="st2" d="M557.6,269.4L438,181.1v183l119.6-88.3C559.8,274.2,559.8,271,557.6,269.4z"/>
</g>
<path class="st3" d="M538.2,336c0.4,0,0.8,0,1.2,0c0.4,0,0.9,0,0.9,0.6c0,0.7-0.3,0.8-0.9,0.8c-0.7,0-1.4,0-2.2,0.1
	c-0.3,0-0.7-0.1-0.8,0.2c-0.2,0.4,0.3,0.5,0.5,0.8c0.5,0.5,1.1,1.1,1.7,1.6c0.5,0.4,0.3,0.7,0,1.1c-0.3,0.4-0.6,0.3-1,0
	c-0.7-0.6-1.3-1.3-2-1.9c-0.4-0.3-0.6-0.2-0.6,0.3c0,0.9,0,1.7,0.1,2.6c0,0.5-0.1,0.8-0.7,0.9c-0.6,0-0.7-0.3-0.8-0.8
	c0-0.9-0.1-1.7-0.1-2.6c0-0.2,0-0.4-0.2-0.5c-0.2-0.1-0.4,0.1-0.5,0.2c-0.6,0.7-1.3,1.3-1.9,2c-0.3,0.4-0.6,0.3-1,0
	c-0.3-0.3-0.5-0.6-0.1-1c0.7-0.7,1.3-1.4,2-2.1c0.1-0.1,0.2-0.3,0.2-0.4c0-0.2-0.3-0.2-0.5-0.2c-0.9,0-1.8,0-2.7,0.1
	c-0.4,0-0.7-0.1-0.7-0.6c0-0.5,0.1-0.8,0.7-0.8c0.9,0,1.8,0,2.7-0.1c0.2,0,0.4,0,0.4-0.2c0-0.1-0.1-0.3-0.2-0.3
	c-0.7-0.6-1.3-1.3-2-1.9c-0.4-0.3-0.5-0.6-0.1-1.1c0.5-0.5,0.8-0.4,1.2,0c0.6,0.6,1.3,1.2,1.9,1.8c0.1,0.1,0.3,0.3,0.5,0.2
	c0.2-0.1,0.1-0.3,0.1-0.5c0-0.9,0-1.7-0.1-2.6c0-0.5,0.1-0.8,0.7-0.9c0.6-0.1,0.7,0.3,0.7,0.8c0,0.9,0,1.8,0.1,2.7
	c0,0.1,0,0.3,0.1,0.4c0.2,0.2,0.4,0,0.5-0.2c0.6-0.7,1.3-1.3,1.9-2c0.3-0.4,0.6-0.5,1.1-0.1c0.4,0.4,0.4,0.7,0,1.1
	c-0.7,0.7-1.3,1.4-2,2.1c-0.3,0.3-0.2,0.5,0.2,0.5C537.1,336.1,537.7,336.1,538.2,336C538.2,336,538.2,336,538.2,336"/>
<path class="st3" d="M97.9,378.2c-0.1,0.1-0.1,0.3-0.2,0.5c-1.1,1.9-2.1,3.9-3.2,5.8c-0.3,0.6-0.7,0.7-1.2,0.3
	c-0.9-0.6-2.1-0.9-2.9-1.8c0.4-1,0.9-1.9,1.4-2.8c0.7-1.2,1.4-2.4,2-3.7c0.3-0.6,0.6-0.6,1.1-0.3c0.8,0.5,1.7,0.9,2.5,1.4
	C97.6,377.7,97.8,377.8,97.9,378.2"/>
<path class="st4" d="M418.5,77.6c0.4-0.5,0.7-1.1,1.2-1.6c1.2-1.3,3-1.2,4.2,0.1c0.6,0.7,0.9,1.5,1.3,2.2c0.4,0.7,0.7,1.5,1.5,1.9
	c0.4,0.2,0.3,0.5,0.3,0.9c0,0.5-0.2,0.7-0.7,0.5c-0.7-0.2-1.3-0.7-1.7-1.3c-0.4-0.6-0.7-1.2-1-1.8c-0.3-0.5-0.5-0.9-0.8-1.4
	c-0.6-0.8-1.5-0.9-2.2-0.1c-0.5,0.6-0.9,1.3-1.3,1.9c-0.3,0.4-0.5,0.9-0.9,1.3c-1.4,1.5-3.3,1.4-4.5-0.3c-0.4-0.5-0.6-1.1-0.9-1.6
	c-0.3-0.5-0.5-1-0.8-1.4c-0.8-1.1-1.7-1.1-2.5-0.1c-0.5,0.6-0.8,1.3-1.2,2c-0.5,0.8-1.1,1.6-2,2c-0.3,0.1-0.7,0.3-0.9,0
	c-0.2-0.4-0.3-1,0.1-1.2c1.4-0.6,1.8-2.1,2.6-3.2c0.2-0.2,0.3-0.5,0.5-0.7c1.3-1.5,3.2-1.4,4.5,0.1c0.6,0.7,0.9,1.6,1.3,2.4
	c0.4,0.7,0.7,1.6,1.7,1.6c1,0,1.3-0.8,1.8-1.5C418.2,78.1,418.4,77.9,418.5,77.6"/>
<path class="st3" d="M361.4,463.3c-1.9,0-3.4-1.5-3.5-3.3c-0.1-1.9,1.5-3.5,3.4-3.6c2,0,3.5,1.5,3.5,3.4
	C364.7,461.8,363.3,463.3,361.4,463.3 M361.4,461.9c1.1,0,2-1,1.9-2.1c-0.1-1.1-1-1.9-2.1-1.8c-1,0.1-1.9,1-1.9,2
	C359.3,461,360.3,461.9,361.4,461.9"/>
<path class="st4" d="M517.3,335c-0.7,0.1-1.4-0.1-2.1-0.4c-0.7-0.3-1.4-0.7-2.1-0.9c-1.5-0.5-2.2,0.1-2.1,1.7c0,0.5,0.1,1,0.2,1.4
	c0.1,0.7,0.2,1.3,0.1,2c-0.1,2-1.5,3-3.5,2.6c-0.7-0.1-1.4-0.5-2-0.8c-0.9-0.4-1.9-1.1-2.8-0.4c-1,0.7-0.5,1.9-0.4,2.8
	c0.1,0.8,0.2,1.5,0.2,2.3c-0.1,1.8-1.5,2.9-3.3,2.6c-0.8-0.1-1.5-0.5-2.3-0.8c-0.8-0.3-1.6-0.8-2.5-0.6c-0.4,0.1-0.6-0.2-0.8-0.4
	c-0.3-0.4-0.3-0.7,0.2-0.9c0.8-0.3,1.5-0.3,2.3,0c0.6,0.2,1.2,0.5,1.9,0.8c0.4,0.2,0.9,0.4,1.4,0.5c1,0.2,1.6-0.2,1.7-1.2
	c0.1-0.6,0-1.2-0.1-1.7c-0.1-0.6-0.2-1.2-0.2-1.9c-0.1-2.3,1.6-3.6,3.8-3c0.7,0.2,1.4,0.6,2.1,0.9c0.8,0.3,1.6,0.9,2.5,0.2
	c0.8-0.6,0.6-1.6,0.5-2.4c-0.1-0.7-0.2-1.3-0.3-2c-0.2-2.5,1.6-3.9,4-3.1c0.9,0.3,1.7,0.7,2.5,1c1.7,0.6,2.5,0,2.4-1.8
	c-0.1-0.8-0.2-1.5-0.3-2.3c-0.1-0.8-0.1-1.6,0.4-2.4c0.2-0.3,0.3-0.7,0.7-0.6c0.4,0.1,0.9,0.6,0.7,1c-0.7,1.5,0,2.8,0,4.3
	C519.9,333.6,519,334.8,517.3,335"/>
<path class="st3" d="M434.1,104.6c0-2,1.6-3.5,3.5-3.4c1.9,0.1,3.3,1.5,3.3,3.5c0,2-1.5,3.4-3.5,3.4
	C435.5,108,434.1,106.5,434.1,104.6 M437.5,102.6c-1.1,0-2,1-1.9,2.1c0,1.1,0.9,1.9,2,1.9c1.1,0,2-0.8,2-2
	C439.5,103.5,438.6,102.6,437.5,102.6"/>
<path class="st4" d="M52.6,170.4c-0.6,0.2-1.3,0.4-1.9,0.5c-1.8,0.2-3.1-0.9-3.2-2.7c0-0.9,0.2-1.7,0.4-2.6c0.2-0.8,0.4-1.6,0-2.4
	c-0.2-0.4,0.1-0.6,0.3-0.9c0.3-0.4,0.6-0.4,0.9,0c0.4,0.6,0.5,1.3,0.5,2.1c-0.1,0.7-0.2,1.3-0.3,2c-0.1,0.5-0.2,1-0.2,1.6
	c0,1.1,0.6,1.6,1.6,1.4c0.8-0.1,1.5-0.4,2.2-0.7c0.5-0.2,1-0.4,1.5-0.5c2.1-0.3,3.5,1,3.4,3.1c0,0.6-0.2,1.2-0.3,1.9
	c-0.1,0.5-0.2,1-0.3,1.6c-0.1,1.3,0.6,1.9,1.9,1.6c0.7-0.2,1.5-0.5,2.2-0.8c0.9-0.3,1.8-0.6,2.8-0.3c0.3,0.1,0.8,0.2,0.7,0.6
	c0,0.4-0.4,1-0.8,0.9c-1.5-0.4-2.7,0.6-4,0.9c-0.3,0.1-0.6,0.2-0.8,0.2c-2,0.3-3.4-0.9-3.4-2.9c0-0.9,0.3-1.8,0.4-2.7
	c0.1-0.8,0.4-1.7-0.3-2.3c-0.7-0.6-1.6-0.2-2.3,0.1C53.1,170.2,52.9,170.3,52.6,170.4"/>
<path class="st4" d="M85.1,354.9c1.6,1.1,2,3.2,0.8,4.8c-1.1,1.5-3.1,1.9-4.7,0.8c-1.6-1.1-2-3.2-0.8-4.8
	C81.5,354.1,83.5,353.8,85.1,354.9 M84.8,358.8c0.6-0.9,0.3-2.2-0.6-2.8c-0.9-0.6-2.1-0.3-2.7,0.6c-0.6,0.9-0.4,2.1,0.5,2.8
	C83,359.9,84.2,359.7,84.8,358.8"/>
<path class="st3" d="M73.8,155.1c-0.2-0.3-0.2-0.5,0-0.7c1-1.1,1.9-2.1,2.9-3.2c0.3-0.3,0.6-0.3,0.9,0c1,1,2.1,1.9,3.1,2.8
	c0.4,0.3,0.3,0.6,0,1c-0.9,1-1.8,2-2.7,3c-0.2,0.2-0.5,0.4-0.7,0.2C76,157.1,74.9,156,73.8,155.1"/>
<path class="st3" d="M56.3,359.1c-0.7-1.3-0.1-3,1.2-3.7c1.3-0.7,3-0.1,3.7,1.2c0.7,1.4,0.2,2.9-1.2,3.7
	C58.6,360.9,57,360.4,56.3,359.1"/>
<g>
	<rect x="171.3" y="102.5" class="st6" width="240.2" height="298"/>
	<path class="st5" d="M413,402H169.8V101H413V402z M172.8,399H410V104H172.8V399z"/>
</g>
<circle class="st6" cx="69.5" cy="240.5" r="16.5"/>
<path class="st7" d="M69.5,258c-9.6,0-17.5-7.9-17.5-17.5S59.9,223,69.5,223S87,230.9,87,240.5S79.1,258,69.5,258z M69.5,225
	C61,225,54,232,54,240.5S61,256,69.5,256S85,249,85,240.5S78,225,69.5,225z"/>
<circle class="st6" cx="510.5" cy="240.5" r="16.5"/>
<path class="st7" d="M510.5,258c-9.6,0-17.5-7.9-17.5-17.5s7.9-17.5,17.5-17.5s17.5,7.9,17.5,17.5S520.1,258,510.5,258z M510.5,225
	c-8.5,0-15.5,7-15.5,15.5s7,15.5,15.5,15.5s15.5-7,15.5-15.5S519,225,510.5,225z"/>
<g>
	<ellipse class="st8" cx="221.6" cy="235.4" rx="11.8" ry="3.9"/>
	<ellipse class="st8" cx="361.5" cy="235.4" rx="11.8" ry="3.9"/>
	<g class="st9">
		<path class="st7" d="M226.9,155.8L226.9,155.8c-0.9-0.3-1.5-1.3-1.1-2.2c1.4-3.6,3.7-6.1,6.8-7.5c5.6-2.5,12.4-0.4,15.5,0.8
			c0.9,0.4,1.3,1.4,0.9,2.3l0,0c-0.4,0.8-1.3,1.1-2.1,0.8c-2.6-1-8.4-2.8-12.9-0.9c-2.3,1-3.9,2.9-5,5.6
			C228.6,155.6,227.7,156.1,226.9,155.8z"/>
	</g>
	<g class="st9">
		<path class="st7" d="M353.9,155.4c-5.7-2.9-12-2.8-14.8-2.5c-0.9,0.1-1.6-0.5-1.8-1.4l0,0c-0.2-1,0.5-1.9,1.5-1.9
			c3.2-0.3,10.1-0.4,16.6,2.9c0.9,0.4,1.2,1.5,0.7,2.3l0,0C355.7,155.5,354.7,155.8,353.9,155.4z"/>
	</g>
	<path class="st10" d="M302.4,232.7c-0.7,0-1.4,0.5-1.5,1.3c-1.1,5.1-4.9,8.8-9.5,8.8c-4.6,0-8.4-3.7-9.5-8.8
		c-0.2-0.7-0.8-1.3-1.5-1.3l0,0c-1,0-1.8,0.9-1.6,1.9c1.4,6.6,6.5,11.4,12.6,11.4c6.1,0,11.2-4.8,12.6-11.4
		C304.2,233.6,303.4,232.7,302.4,232.7L302.4,232.7z"/>
	<g>
		<path class="st8" d="M229.6,174.2c-5.7,2.1-9,6.9-9.5,12c-0.2,1.6-0.2,3.7,0,6.1l19.8-19.8C235.6,172.7,231.9,173.3,229.6,174.2z"
			/>
		<path class="st11" d="M229.6,174.2c-5.7,2.1-9,6.9-9.5,12c-0.2,1.6-0.2,3.7,0,6.1l19.8-19.8C235.6,172.7,231.9,173.3,229.6,174.2z
			"/>
		<path class="st8" d="M269.4,175.4c-2.1-0.9-5-1.6-8.4-2.1L225.3,209c0.4,0.6,0.8,1.2,1.3,1.7c2.5,2.9,5.3,5,8.3,6.2
			c3.9,1.6,7.9,2.1,7.9,2.1h5.8c0,0,11.8-0.4,19.5-7.5c6.7-6.1,9.6-18.4,9.5-24.9C277.7,183.8,274.9,177.8,269.4,175.4z"/>
		<path class="st11" d="M269.4,175.4c-2.1-0.9-5-1.6-8.4-2.1L225.3,209c0.4,0.6,0.8,1.2,1.3,1.7c2.5,2.9,5.3,5,8.3,6.2
			c3.9,1.6,7.9,2.1,7.9,2.1h5.8c0,0,11.8-0.4,19.5-7.5c6.7-6.1,9.6-18.4,9.5-24.9C277.7,183.8,274.9,177.8,269.4,175.4z"/>
		<path class="st8" d="M248.7,172.3l-27.4,27.4c0.3,1.2,0.7,2.4,1.1,3.5l30.8-30.8C251.7,172.4,250.2,172.3,248.7,172.3z"/>
		<path class="st11" d="M248.7,172.3l-27.4,27.4c0.3,1.2,0.7,2.4,1.1,3.5l30.8-30.8C251.7,172.4,250.2,172.3,248.7,172.3z"/>
		<path class="st8" d="M313.4,175.4c-5.5,2.4-8.3,8.4-8.3,11.2c0,2.8,0.5,6.8,1.7,10.9l25.2-25.2
			C324.6,172.6,317.4,173.7,313.4,175.4z"/>
		<path class="st11" d="M313.4,175.4c-5.5,2.4-8.3,8.4-8.3,11.2c0,2.8,0.5,6.8,1.7,10.9l25.2-25.2
			C324.6,172.6,317.4,173.7,313.4,175.4z"/>
		<path class="st8" d="M340.7,172.3l-31.5,31.5c0.5,1,1,2,1.6,3l34.2-34.2C343.7,172.5,342.2,172.4,340.7,172.3z"/>
		<path class="st11" d="M340.7,172.3l-31.5,31.5c0.5,1,1,2,1.6,3l34.2-34.2C343.7,172.5,342.2,172.4,340.7,172.3z"/>
		<path class="st8" d="M362.8,186.2c-0.6-5.1-3.9-9.9-9.5-12c-0.2-0.1-0.5-0.2-0.8-0.3l-37.7,37.7c6.7,6,16.4,7.1,18.8,7.3
			c0.3-0.1,0.5-0.1,0.6,0h5.8c0,0,4-0.4,7.9-2.1c3-1.3,5.8-3.3,8.3-6.2C362.1,203.8,363.4,191.9,362.8,186.2z"/>
		<path class="st11" d="M362.8,186.2c-0.6-5.1-3.9-9.9-9.5-12c-0.2-0.1-0.5-0.2-0.8-0.3l-37.7,37.7c6.7,6,16.4,7.1,18.8,7.3
			c0.3-0.1,0.5-0.1,0.6,0h5.8c0,0,4-0.4,7.9-2.1c3-1.3,5.8-3.3,8.3-6.2C362.1,203.8,363.4,191.9,362.8,186.2z"/>
		<path class="st8" d="M239.8,172.4L220,192.3c0.2,2.3,0.6,4.9,1.3,7.4l27.4-27.4C245.6,172.2,242.6,172.3,239.8,172.4z"/>
		<path class="st8" d="M253.1,172.5l-30.8,30.8c0.8,2.1,1.8,4,3,5.8l35.7-35.7C258.6,172.9,255.9,172.6,253.1,172.5z"/>
		<path class="st8" d="M332,172.3l-25.2,25.2c0.6,2.1,1.4,4.3,2.4,6.3l31.5-31.5C337.9,172.2,334.9,172.2,332,172.3z"/>
		<path class="st8" d="M345,172.6l-34.2,34.2c1.1,1.8,2.4,3.4,3.8,4.7c0,0,0.1,0.1,0.1,0.1l37.7-37.7
			C350.6,173.3,348,172.9,345,172.6z"/>
		<path class="st8" d="M216.3,176.6c2.2-0.2,4.3-1,4.2-1.7c-0.2-0.7-2.2-1-4.6-0.8c-2.4,0.2-4.3,1-4.2,1.7
			C211.9,176.6,213.9,176.9,216.3,176.6z"/>
		<path class="st8" d="M366.7,174.1c-2.4-0.2-4.4,0.3-4.4,1c0.1,0.8,2,1.4,4.4,1.6c2.2,0.2,4.5-0.3,4.4-1
			C371,175,369.1,174.3,366.7,174.1z"/>
		<path class="st7" d="M328.3,167.9c-15.5,0.7-29.1,7.7-37.3,7.9c-8.4,0.2-17.1-6.3-37.4-7.9c-24.7-1.9-45.6,2.9-45.6,2.9l0.8,9.5
			c0,0,4.2,1,5.4,5.8c1.7,6.7,1.1,18.7,7.1,25.7c7,8.2,14,10,21.2,10.4c7,0.4,22.8-0.5,31.5-10.4c3.3-3.7,6-8.8,7.9-13.7
			c2.2-5.6,3.6-11.6,5.8-13.3c0.8-0.6,2-0.4,3.3-0.4c1.8,0,3.4,0,4.6,1.2c2.8,3,4,9.7,6.6,15.8c1.7,4,4.5,7.9,7.5,11.2
			c7.8,8.4,25.3,9.9,31.5,9.5c6.9-0.4,14.7-2.8,19.5-9.1c2.3-3.1,4-6.9,5-10.8c1.5-5.7,1.9-11.6,2.9-15.8c1.4-5.6,5-5.8,5-5.8
			l1.2-10C374.8,170.8,353.8,166.7,328.3,167.9z M268.1,211.5c-7.7,7-19.5,7.5-19.5,7.5h-5.8c0,0-4-0.4-7.9-2.1
			c-3-1.3-5.8-3.3-8.3-6.2c-0.5-0.5-0.9-1.1-1.3-1.7c-1.2-1.7-2.2-3.7-3-5.8c-0.4-1.2-0.8-2.3-1.1-3.5c-0.7-2.6-1.1-5.1-1.3-7.4
			c-0.2-2.3-0.2-4.5,0-6.1c0.6-5.1,3.9-9.9,9.5-12c2.3-0.9,6-1.4,10.3-1.7c2.8-0.2,5.8-0.2,8.9-0.2c1.5,0,3,0.1,4.4,0.2
			c2.8,0.2,5.4,0.4,7.9,0.8c3.4,0.5,6.3,1.2,8.4,2.1c5.5,2.4,8.3,8.4,8.3,11.2C277.8,193.1,274.9,205.4,268.1,211.5z M211.7,175.8
			c-0.2-0.7,1.7-1.5,4.2-1.7c2.4-0.2,4.4,0.1,4.6,0.8c0.2,0.7-2,1.5-4.2,1.7C213.9,176.9,211.9,176.6,211.7,175.8z M366.7,176.7
			c-2.4-0.2-4.3-0.7-4.4-1.6c-0.1-0.7,2-1.1,4.4-1c2.4,0.2,4.3,0.8,4.4,1.6C371.2,176.4,368.9,176.8,366.7,176.7z M347.8,216.9
			c-3.9,1.6-7.9,2.1-7.9,2.1h-5.8c-0.2-0.1-0.4-0.1-0.6,0c-2.4-0.2-12.1-1.3-18.8-7.3c0,0-0.1-0.1-0.1-0.1c-1.4-1.3-2.7-2.9-3.8-4.7
			c-0.6-1-1.1-2-1.6-3c-1-2-1.8-4.2-2.4-6.3c-1.2-4.1-1.7-8.1-1.7-10.9c0-2.9,2.8-8.8,8.3-11.2c4-1.7,11.2-2.8,18.6-3.1
			c3-0.1,5.9-0.1,8.7,0c1.5,0.1,3,0.2,4.3,0.3c2.9,0.3,5.5,0.7,7.4,1.3c0.3,0.1,0.5,0.2,0.8,0.3c5.7,2.1,9,6.9,9.5,12
			c0.6,5.7-0.7,17.6-6.6,24.5C353.6,213.6,350.9,215.6,347.8,216.9z"/>
	</g>
</g>
<ellipse class="st12" cx="291" cy="502" rx="120" ry="4"/>
</svg>
