<svg id="Capa_1" data-name="Capa 1" xmlns="http://www.w3.org/2000/svg" viewBox="0 0 581.88 539.89"><defs><style>.cls-1{opacity:0.3;}.cls-10,.cls-11,.cls-2,.cls-7{fill:#ca3a6b;}.cls-3,.cls-5{fill:#2db7b0;}.cls-3,.cls-7{opacity:0.2;}.cls-13,.cls-4,.cls-6{fill:#fff;}.cls-4,.cls-6{stroke:#2db7b0;stroke-miterlimit:10;}.cls-4{stroke-width:2px;}.cls-5{opacity:0.7;}.cls-6{stroke-width:3px;}.cls-15,.cls-8,.cls-9{fill:#05293d;}.cls-8{opacity:0.4;isolation:isolate;}.cls-10{opacity:0.5;}.cls-11{opacity:0.6;}.cls-12{fill:#00c8b7;}.cls-14{fill:#08b29d;}.cls-15{opacity:0.1;}</style></defs><title>configure-mail-flxg</title><g class="cls-1"><path class="cls-2" d="M202.16,132.71c-.23-2.48-.56-5-1-7.38l3.75-.69c.47,2.54.82,5.14,1,7.73Z"/><path class="cls-2" d="M151,214.39a31.61,31.61,0,0,1-14.84-6.32l2.36-3a27.7,27.7,0,0,0,13,5.55Zm16-1.82L165.6,209a38.38,38.38,0,0,0,12.08-8l2.62,2.76A42.13,42.13,0,0,1,167,212.57Zm-40.45-17.48A31.36,31.36,0,0,1,124.39,181c0-.39.07-.77.12-1.16l.11-.81,3.76.58-.09.69c0,.34-.08.67-.1,1a27.48,27.48,0,0,0,1.9,12.35Zm147,11,.28-3.8c4.95.38,10.06.59,15.18.62l0,3.81C283.77,206.69,278.57,206.48,273.54,206.09Zm-15.37-1.74-2.41-.38c-4.63-.77-8.82-1.64-12.8-2.66l.95-3.69c3.87,1,8,1.84,12.48,2.59l2.35.37Zm46.23,2-.21-3.81c4.94-.27,10-.69,15.17-1.26l.41,3.79C314.58,205.64,309.41,206.07,304.4,206.35Zm-76.22-10a74,74,0,0,1-12-6.51c-.57-.39-1.14-.78-1.69-1.18l2.22-3.1,1.6,1.12a70.68,70.68,0,0,0,11.37,6.18Zm-37.77-4.57-3.15-2.16a85,85,0,0,0,7.36-13l3.47,1.57A90,90,0,0,1,190.41,191.75ZM335.05,203l-.6-3.76c4.84-.77,9.89-1.68,15-2.7l.75,3.73C345,201.32,339.94,202.24,335.05,203Zm30.18-6-.88-3.71q7.44-1.75,14.81-3.73l1,3.68Q372.72,195.21,365.23,197Zm-162.7-18.18a105.49,105.49,0,0,0-10.71-8.36l-1.21-.77,2-3.24,1.29.83a107,107,0,0,1,11.1,8.65Zm-67.82-11.23-2.43-2.93c3.6-3,8.37-5.09,14.58-6.37l1,3.68C142.13,163.15,137.78,165,134.71,167.58Zm42.43-4a61,61,0,0,0-13-2.52l-1.54-.1.21-3.81a64.49,64.49,0,0,1,15.5,2.8Zm26.18-.13-3.69-1a87.32,87.32,0,0,0,2.55-14.76l3.8.33A92.92,92.92,0,0,1,203.32,163.41Z"/><path class="cls-2" d="M395.11,189.05,394,185.39q3.66-1.06,7.3-2.16l1.1,3.65Z"/></g><path class="cls-3" d="M509.8,202.65a140.73,140.73,0,0,0-19.42-46.86l18.31-18.32L466.42,95.23l-18.3,18.3A141,141,0,0,0,401.25,94.1V68.23H341.49V94.1a141,141,0,0,0-46.87,19.43l-18.3-18.3L234,137.47l18.32,18.32a141,141,0,0,0-19.43,46.86H207l0,59.77h26a140.8,140.8,0,0,0,19.43,46.87L234,327.67,276.22,370l18.4-18.4A140.78,140.78,0,0,0,341.49,371v26h59.76V371a140.78,140.78,0,0,0,46.87-19.42l18.4,18.4,42.25-42.28-18.39-18.38a140.57,140.57,0,0,0,19.42-46.87h26V202.65ZM371.37,302a69.42,69.42,0,1,1,69.42-69.42A69.42,69.42,0,0,1,371.37,302Z"/><rect class="cls-4" x="97.96" y="305.37" width="284.26" height="175.42"/><path class="cls-5" d="M197.09,398.14,97.77,480.6l284.72-.09-96.58-82.37a19.57,19.57,0,0,0-12.7-4.69H209.8A19.62,19.62,0,0,0,197.09,398.14Z"/><path class="cls-5" d="M266,395l116.32,85.84V305.9L266,391.74A2,2,0,0,0,266,395Z"/><path class="cls-6" d="M113.56,228.23v88.25l100.6,75a2.32,2.32,0,0,1,.49,3h49.54a1.4,1.4,0,0,1,.85-1.32l.22-.12a2.26,2.26,0,0,1,.83-1.6l101.24-75V228.23Z"/><path class="cls-5" d="M214.28,391.74,98,305.9V480.79L214.28,395A2,2,0,0,0,214.28,391.74Z"/><ellipse class="cls-7" cx="172.7" cy="320.45" rx="12.43" ry="4.14"/><ellipse class="cls-7" cx="307.83" cy="320.45" rx="12.43" ry="4.14"/><path class="cls-8" d="M249.6,339.7A1.68,1.68,0,0,0,248,341c-1.12,5.38-5.16,9.3-10,9.3s-8.88-3.92-10-9.3a1.66,1.66,0,0,0-1.63-1.33h0a1.68,1.68,0,0,0-1.66,2c1.43,6.93,6.82,12,13.29,12s11.85-5.07,13.29-12a1.68,1.68,0,0,0-1.66-2Z"/><circle class="cls-9" cx="185.14" cy="295.33" r="7.93"/><circle class="cls-9" cx="295.04" cy="294.28" r="7.93"/><polygon class="cls-10" points="171.14 63.3 186.49 99.31 197.71 91.63 204.21 101.08 205.38 85.14 218.96 76.87 171.14 63.3"/><polygon class="cls-11" points="200.19 89.93 186.49 99.31 197.71 91.63 204.21 101.08 205.38 85.14 183.75 72.26 200.19 89.93"/><polygon class="cls-2" points="205.09 89.05 183.75 72.26 205.38 85.14 205.09 89.05"/><path class="cls-12" d="M453.18,207.1a1.72,1.72,0,0,1-.17-3.44,40.91,40.91,0,0,0,27-14,1.72,1.72,0,1,1,2.6,2.26,44.36,44.36,0,0,1-29.24,15.17Z"/><path class="cls-12" d="M442.33,115.66a39.82,39.82,0,0,0-35.54,36.57,39.34,39.34,0,0,0,7,25.41,9.61,9.61,0,0,1,.91,9.17l-3.13,7.54L424.34,191a9.65,9.65,0,0,1,6.27.49,39.66,39.66,0,1,0,11.72-75.86Z"/><path class="cls-13" d="M447.33,175.16l2.18-2.18s-1.73-4.08,5.52-11c4.32-4.09,5.29-8.06,4.94-11.3a11.33,11.33,0,0,0-9.94-9.93c-3.24-.36-7.2.61-11.3,4.93-6.88,7.26-11,5.53-11,5.53l-2.18,2.18Z"/><path class="cls-13" d="M430.51,161.85a6,6,0,0,0,8.39,8.39Z"/><path class="cls-13" d="M461.49,143.43l-1.36,1.36a13,13,0,0,0-4.18-4.16l1.37-1.37a2.95,2.95,0,1,1,4.17,4.17Z"/><path class="cls-14" d="M445.28,115.49a34.26,34.26,0,1,1-35,56,40,40,0,0,0,3.49,6.15,9.61,9.61,0,0,1,.91,9.17l-3.13,7.54L424.34,191a9.65,9.65,0,0,1,6.27.49,39.65,39.65,0,1,0,14.67-76Z"/><path class="cls-2" d="M508.49,284.8a2.36,2.36,0,0,1,4.71,0,2.28,2.28,0,0,1-2.42,2.33,2.31,2.31,0,0,1-2.29-2.37m2.32-1.34a1.37,1.37,0,0,0-1.32,1.42,1.34,1.34,0,0,0,1.34,1.3,1.32,1.32,0,0,0,1.37-1.36,1.34,1.34,0,0,0-1.39-1.36"/><path class="cls-2" d="M75.81,388.54a3.26,3.26,0,0,1,1.39-4.33,3.19,3.19,0,0,1,4.3,1.41,3.1,3.1,0,0,1-1.39,4.27,3.16,3.16,0,0,1-4.3-1.35"/><path class="cls-10" d="M520.27,297a2.71,2.71,0,0,1-1.47-.3c-.49-.2-1-.44-1.47-.61-1-.33-1.52.09-1.46,1.16a6.61,6.61,0,0,0,.14,1,6.37,6.37,0,0,1,.09,1.38,1.86,1.86,0,0,1-2.38,1.82,8,8,0,0,1-1.39-.52c-.63-.25-1.29-.78-2-.29s-.35,1.27-.25,1.93a7.63,7.63,0,0,1,.1,1.58A1.84,1.84,0,0,1,508,306a7,7,0,0,1-1.58-.57,2.62,2.62,0,0,0-1.7-.4c-.28.06-.43-.13-.57-.31s-.19-.48.16-.6a2.26,2.26,0,0,1,1.56,0c.43.16.85.37,1.28.54a6.44,6.44,0,0,0,.93.33.87.87,0,0,0,1.16-.85,3.89,3.89,0,0,0-.06-1.18,11.22,11.22,0,0,1-.17-1.28,1.91,1.91,0,0,1,2.6-2.05,13.93,13.93,0,0,1,1.46.59c.55.21,1.12.59,1.69.17s.39-1.08.32-1.66-.16-.92-.19-1.38a2,2,0,0,1,2.74-2.15c.59.2,1.15.5,1.74.72,1.15.43,1.74,0,1.64-1.22,0-.53-.16-1-.23-1.57a2.6,2.6,0,0,1,.26-1.64c.1-.19.22-.48.48-.41s.58.44.46.67c-.49,1,0,2,0,2.93.08,1.39-.51,2.25-1.72,2.4"/><path class="cls-2" d="M410.25,417.59a4,4,0,1,1-.13-8,4,4,0,0,1,.13,8m0-1.69a2.29,2.29,0,0,0,2.2-2.44,2.23,2.23,0,0,0-2.47-2.14,2.31,2.31,0,0,0-2.16,2.32,2.38,2.38,0,0,0,2.43,2.26"/><path class="cls-10" d="M432.54,428.13a18.52,18.52,0,0,1,1.36-1.87,3.12,3.12,0,0,1,4.84.14,14.11,14.11,0,0,1,1.53,2.59c.44.84.78,1.76,1.74,2.17.5.2.38.62.39,1,0,.59-.22.81-.83.64a3.55,3.55,0,0,1-1.94-1.52c-.43-.65-.76-1.36-1.14-2a12.42,12.42,0,0,0-.94-1.58,1.46,1.46,0,0,0-2.53-.1,18.62,18.62,0,0,0-1.48,2.22,9.73,9.73,0,0,1-1,1.52,3.18,3.18,0,0,1-5.28-.33,18.32,18.32,0,0,1-1.08-1.88,18,18,0,0,0-.9-1.61c-.88-1.25-1.93-1.31-2.86-.12a21.23,21.23,0,0,0-1.42,2.28,5,5,0,0,1-2.34,2.3c-.35.14-.82.4-1.07,0s-.33-1.17.1-1.36c1.66-.76,2-2.47,3-3.74.2-.26.38-.55.61-.8a3.2,3.2,0,0,1,5.19.15A19.3,19.3,0,0,1,428,429c.46.83.85,1.82,2,1.82s1.56-1,2-1.77c.18-.29.34-.58.52-.9"/><path class="cls-2" d="M92.54,231.54l1.34,0c.52,0,1-.05,1,.72s-.39.94-1,1c-.83,0-1.67,0-2.51.07-.32,0-.77-.11-.91.21s.32.64.57.89c.63.64,1.27,1.26,2,1.85s.34.81,0,1.24-.71.39-1.1,0c-.76-.74-1.54-1.47-2.33-2.18-.44-.39-.72-.22-.72.33,0,1,0,2,.08,3,0,.58-.11,1-.8,1s-.86-.31-.87-.91c0-1-.08-2-.13-3,0-.21,0-.46-.25-.57s-.42.13-.56.27c-.74.77-1.47,1.53-2.18,2.32-.41.45-.73.36-1.12,0s-.56-.67-.12-1.12q1.15-1.22,2.28-2.46c.11-.11.24-.29.22-.42s-.31-.27-.53-.27l-3.18.07c-.52,0-.84-.11-.87-.72s.15-1,.82-1c1.06,0,2.12,0,3.18-.09.22,0,.49,0,.51-.28,0-.12-.13-.29-.24-.4-.76-.74-1.52-1.48-2.31-2.19-.43-.4-.59-.71-.12-1.23s.88-.44,1.35,0c.7.72,1.45,1.39,2.19,2.07.15.14.31.39.57.23s.15-.38.15-.6c0-1,0-2-.08-3,0-.61.16-.94.81-1s.85.33.87.91c0,1.06,0,2.12.1,3.18a.68.68,0,0,0,.14.44c.23.19.41,0,.56-.18.74-.77,1.47-1.53,2.18-2.32.4-.44.74-.6,1.24-.1s.5.77,0,1.24c-.79.79-1.54,1.62-2.29,2.45-.32.36-.2.6.29.6l1.84,0v0"/><path class="cls-10" d="M432.73,67.27a4.88,4.88,0,0,1,.51-2.49c.34-.83.76-1.63,1-2.48.56-1.7-.15-2.58-1.95-2.48a15.43,15.43,0,0,0-1.66.24,10.17,10.17,0,0,1-2.34.16,3.16,3.16,0,0,1-3.07-4,14.15,14.15,0,0,1,.88-2.35c.42-1.06,1.32-2.16.5-3.3s-2.15-.59-3.28-.43a12.63,12.63,0,0,1-2.67.18,3.13,3.13,0,0,1-3-3.8,11.22,11.22,0,0,1,1-2.67,4.47,4.47,0,0,0,.68-2.87c-.11-.48.21-.72.52-1s.81-.33,1,.27a3.78,3.78,0,0,1,0,2.63c-.27.73-.61,1.44-.9,2.17a8.9,8.9,0,0,0-.56,1.57,1.46,1.46,0,0,0,1.43,2,7.06,7.06,0,0,0,2-.11,20,20,0,0,1,2.16-.29c2.67-.09,4.2,1.83,3.47,4.39a25.36,25.36,0,0,1-1,2.49c-.36.92-1,1.89-.28,2.84s1.82.66,2.81.55c.77-.08,1.54-.28,2.32-.32,2.94-.18,4.53,1.84,3.63,4.63-.33,1-.84,1.95-1.21,2.94-.73,2,0,2.94,2.06,2.78.89-.07,1.77-.28,2.66-.39a4.43,4.43,0,0,1,2.77.43c.32.19.82.39.69.81s-.73,1-1.13.79c-1.69-.83-3.31,0-4.94.05-2.37.13-3.82-.86-4.08-2.91"/><path class="cls-2" d="M434.85,39.65a4,4,0,0,1,4.11-4,4,4,0,1,1-4.11,4m3.94-2.27a2.3,2.3,0,0,0-2.24,2.4,2.3,2.3,0,1,0,2.24-2.4"/><path class="cls-2" d="M70,405a3.48,3.48,0,0,1-3.52-3.31,3.43,3.43,0,0,1,3.41-3.56,3.36,3.36,0,0,1,3.49,3.44A3.41,3.41,0,0,1,70,405m0-1.46a2,2,0,0,0,1.9-2.1,1.92,1.92,0,0,0-2.12-1.84,2,2,0,0,0-1.86,2,2,2,0,0,0,2.08,1.94"/><ellipse class="cls-15" cx="237.7" cy="513.08" rx="86.3" ry="3.92"/></svg>