<svg xmlns="http://www.w3.org/2000/svg" width="57.298" height="55.828" viewBox="0 0 57.298 55.828"><g id="Grupo_50" data-name="Grupo 50" transform="translate(-175.49 -5468.294)"><path id="Trazado_28" data-name="Trazado 28" d="M2304.447,1482.775a6.213,6.213,0,0,1,8.786,0l8.948,8.948c.684.684.684.684,1.945,2.064l9.809-9.014a19.6,19.6,0,0,0-2.184-2.621l-8.947-8.948a19.749,19.749,0,0,0-27.928,0l-8.948,8.948a17.647,17.647,0,0,0-3.355,21.879l21.539-20.92Z" transform="translate(-2104.701 4000.874)" fill="#002169"></path><path id="Trazado_29" data-name="Trazado 29" d="M2317.6,1554.895l-1.954-2.126c-.875-.841-1.833-1.767-2.375-2.31l-8.948-8.947c-.528-.528-.7-.687-1.542-1.559l-9.569,9.373a19.647,19.647,0,0,0,1.54,1.757l8.948,8.947a19.748,19.748,0,0,0,27.928,0l8.948-8.947a19.65,19.65,0,0,0,5.737-13.183,19.863,19.863,0,0,0-1.88-7.662Z" transform="translate(-2113.524 3958.308)" fill="#00d2f1"></path></g></svg>