<svg version="1.1" id="layer_1" xmlns="http://www.w3.org/2000/svg" xmlns:xlink="http://www.w3.org/1999/xlink" x="0px" y="0px"
	 viewBox="0 0 26 26" style="enable-background:new 0 0 26 26;" xml:space="preserve">
<style type="text/css">
	.st0{fill-rule:evenodd;clip-rule:evenodd;fill:white;}
</style>
<g>
	<path class="st0" d="M21,24H9c-1.1,0-2-0.9-2-2V8c0-1.1,0.9-2,2-2h12c1.1,0,2,0.9,2,2v14C23,23.1,22.1,24,21,24z M21,8H9v14h12V8z
		 M19,12h-8v-2h8V12z M19,16h-8v-2h8V16z M19,20h-8v-2h8V20z M5,18H3V4c0-1.1,0.9-2,2-2h12v2H5V18z"/>
</g>
</svg>
