<svg version="1.1" id="Layer_1" xmlns="http://www.w3.org/2000/svg" xmlns:xlink="http://www.w3.org/1999/xlink" x="0px" y="0px"
	 viewBox="0 0 80 80" style="enable-background:new 0 0 80 80;" xml:space="preserve">
<style type="text/css">
	.r01{fill-rule:evenodd;clip-rule:evenodd;fill:white;}
</style>
<path class="r01" d="M40,65C40,65,40,65,40,65l0,4l-8-5l8-5v4c0,0,0,0,0,0c12.7,0,23-10.3,23-23c0-0.7,0-1.3-0.1-2h2
	c0.1,0.7,0.1,1.3,0.1,2C65,53.8,53.8,65,40,65z M44,40c0,2.2-1.8,4-4,4s-4-1.8-4-4s1.8-4,4-4S44,37.8,44,40z M40,17
	C40,17,40,17,40,17c-12.7,0-23,10.3-23,23c0,1.4,0.1,2.7,0.4,4h-2c-0.2-1.3-0.3-2.6-0.3-4c0-13.8,11.2-25,25-25c0,0,0,0,0,0v-4l8,5
	l-8,5V17z"/>
</svg>
