<svg version="1.1" id="layer_1" opacity="0.5" xmlns="http://www.w3.org/2000/svg" xmlns:xlink="http://www.w3.org/1999/xlink"
	 x="0px" y="0px" viewBox="0 0 20 20" style="enable-background:new 0 0 20 20;" xml:space="preserve" width="21" height="21">
<style type="text/css">
	.st0{fill:white;}
</style>
<g>
	<path class="st0" d="M14.5,13h-0.8l-0.3-0.3c1-1.1,1.6-2.6,1.6-4.2C15,4.9,12.1,2,8.5,2C4.9,2,2,4.9,2,8.5C2,12.1,4.9,15,8.5,15
		c1.6,0,3.1-0.6,4.2-1.6l0.3,0.3v0.8l5,5l1.5-1.5L14.5,13z M8.5,13C6,13,4,11,4,8.5C4,6,6,4,8.5,4C11,4,13,6,13,8.5
		C13,11,11,13,8.5,13z"/>
</g>
</svg>
