<svg xmlns="http://www.w3.org/2000/svg" xmlns:xlink="http://www.w3.org/1999/xlink" width="102" height="892" viewBox="0 0 102 892">
	<svg id="angle-down" viewBox="-1 -1 14 14" width="14" height="14" y="0">
		<style>.st0{fill:#666}</style>
		<path class="st0" d="M6 7l4.6-4.4L12 4l-6 6-6-6 1.4-1.4L6 7z"></path>
	</svg>
	<svg viewBox="-1 -1 14 14" width="14" height="14" id="angle-right" y="14">
		<path fill="#666" d="M7 6L2.6 1.4 4 0l6 6-6 6-1.4-1.4L7 6z"></path>
	</svg>
	<svg viewBox="-1 -1 24 24" width="24" height="24" id="arrow-left" y="28">
		<path fill="#666" d="M19 10H6.8l5.6-5.6L11 3l-8 8 8 8 1.4-1.4L6.8 12H19v-2z"></path>
	</svg>
	<svg viewBox="-1 -1 24 24" width="24" height="24" id="arrow-right" y="52">
		<path fill="#666" d="M3 10h12.2L9.6 4.4 11 3l8 8-8 8-1.4-1.4 5.6-5.6H3v-2z"></path>
	</svg>
	<svg id="arrow-right-long" height="16" width="16" viewBox="-1 -1 24 24" y="76">
		<g id="g14" transform="matrix(-1 0 0 1 24 0)">
			<path d="M23.947 10H5.846l5.6-5.6-1.4-1.4-8 8 8 8 1.4-1.4-5.6-5.6h18.102z" id="path12" fill="#FFFFFF" opacity=".6"></path>
		</g>
	</svg>
	<svg height="16" width="16" viewBox="-1 -1 24 24" id="arrow-right-long-selected" y="92">
		<path d="M.053 10h18.101l-5.6-5.6 1.4-1.4 8 8-8 8-1.4-1.4 5.6-5.6H.052z" fill="#fff" opacity=".6"></path>
	</svg>
	<svg viewBox="-1 -1 22 22" width="22" height="22" id="clear-button" y="108">
		<path fill="#F78119" d="M10 0C4.5 0 0 4.5 0 10s4.5 10 10 10 10-4.5 10-10S15.5 0 10 0zm5 13.6L13.6 15 10 11.4 6.4 15 5 13.6 8.6 10 5 6.4 6.4 5 10 8.6 13.6 5 15 6.4 11.4 10l3.6 3.6z"></path>
	</svg>
	<svg viewBox="-1 -1 24 24" width="24" height="24" id="cog" y="130">
		<path fill="#FFF" d="M11 14.5c-2 0-3.6-1.6-3.6-3.5S9 7.5 11 7.5s3.6 1.6 3.6 3.5-1.6 3.5-3.6 3.5m7.6-2.5c0-.3.1-.6.1-1 0-.3 0-.7-.1-1l2.2-1.6c.2-.1.2-.4.1-.6l-2.1-3.5c-.1-.2-.4-.3-.6-.2l-2.6 1c-.5-.4-1.1-.7-1.7-1l-.4-2.7c0-.2-.3-.4-.5-.4H9c-.3 0-.5.2-.6.4l-.3 2.7c-.7.2-1.2.6-1.8.9L3.7 4c-.2 0-.4.1-.6.3l-2 3.4c-.2.2-.1.5.1.7L3.4 10c0 .3-.1.7-.1 1 0 .3 0 .7.1 1l-2.2 1.7c-.2.1-.3.3-.1.6l2.1 3.5c.1.2.3.2.6.2l2.6-1c.5.4 1.1.7 1.7 1l.4 2.6c0 .2.2.4.5.4h4.1c.3 0 .5-.2.5-.4L14 18c.6-.3 1.2-.6 1.7-1l2.6 1c.2.1.5 0 .6-.2l2.1-3.5c.1-.2.1-.5-.1-.6L18.6 12z"></path>
	</svg>
	<svg id="copy" viewBox="-1 -1 28 28" width="28" height="28" y="154">
		<style>.st0{fill-rule:evenodd;clip-rule:evenodd;fill:#999}</style>
		<path class="st0" d="M21 24H9c-1.1 0-2-.9-2-2V8c0-1.1.9-2 2-2h12c1.1 0 2 .9 2 2v14c0 1.1-.9 2-2 2zm0-16H9v14h12V8zm-2 4h-8v-2h8v2zm0 4h-8v-2h8v2zm0 4h-8v-2h8v2zM5 18H3V4c0-1.1.9-2 2-2h12v2H5v14z"></path>
	</svg>
	<svg viewBox="-1 -1 28 28" width="28" height="28" id="copy.dxbButtonHover" y="182">
		<path fill="#fff" d="M21 24H9c-1.1 0-2-.9-2-2V8c0-1.1.9-2 2-2h12c1.1 0 2 .9 2 2v14c0 1.1-.9 2-2 2zm0-16H9v14h12V8zm-2 4h-8v-2h8v2zm0 4h-8v-2h8v2zm0 4h-8v-2h8v2zM5 18H3V4c0-1.1.9-2 2-2h12v2H5v14z"></path>
	</svg>
	<svg viewBox="-1 -1 28 28" width="28" height="28" id="copy.dxbButtonPressed" y="210">
		<path fill="#fff" d="M21 24H9c-1.1 0-2-.9-2-2V8c0-1.1.9-2 2-2h12c1.1 0 2 .9 2 2v14c0 1.1-.9 2-2 2zm0-16H9v14h12V8zm-2 4h-8v-2h8v2zm0 4h-8v-2h8v2zm0 4h-8v-2h8v2zM5 18H3V4c0-1.1.9-2 2-2h12v2H5v14z"></path>
	</svg>
	<svg viewBox="-1 -1 24 24" width="24" height="24" id="download" y="238">
		<path fill="#FFF" d="M17.9 20H4.1C3 20 2 19.1 2 18v-4h2v4h14v-4h2v4c0 1.1-.9 2-2.1 2zM5 10h4V2h4v8h4l-6 6-6-6z"></path>
	</svg>
	<svg id="drop-down" viewBox="-1 -1 14 14" width="14" height="14" y="262">
		<style>.st0{fill-rule:evenodd;clip-rule:evenodd;fill:#666}</style>
		<path class="st0" d="M1 4l4.5 5L10 4H1z"></path>
	</svg>
	<svg id="font" viewBox="-1 -1 14 14" width="14" height="14" y="276">
		<style>.st0{fill:#666}</style>
		<path class="st0" d="M10 2H2v2h3v6h2V4h3V2z"></path>
	</svg>
	<svg viewBox="-1 -1 28 28" width="28" height="28" id="menu" y="290">
		<path fill="#FFF" d="M26 7H0V3h26v4zm0 8H0v-4h26v4zm0 8H0v-4h26v4z"></path>
	</svg>
	<svg id="phone" viewBox="-1 -1 82 82" width="82" height="82" y="318">
		<style>.p01,.p02{fill-rule:evenodd;clip-rule:evenodd;fill:#FFFFFF}.p02{opacity:.5}</style>
		<path class="p01" d="M51 15H29c-2.2 0-4 1.8-4 4v42c0 2.2 1.8 4 4 4h22c2.2 0 4-1.8 4-4V19c0-2.2-1.8-4-4-4zm2 45c0 2.2-.8 3-3 3H30c-2.2 0-3-.8-3-3V20c0-2.2.8-3 3-3h20c2.2 0 3 .8 3 3v40z"></path>
		<path class="p02" d="M27 59V21h26v38H27zm25-37H28v36h24V22z"></path>
	</svg>
	<svg id="phone-selected" viewBox="-1 -1 82 82" width="82" height="82" y="400">
		<style>.ps01,.ps02{fill-rule:evenodd;clip-rule:evenodd;fill:#f48427}.ps02{opacity:.5}</style>
		<path class="ps01" d="M51 15H29c-2.2 0-4 1.8-4 4v42c0 2.2 1.8 4 4 4h22c2.2 0 4-1.8 4-4V19c0-2.2-1.8-4-4-4zm2 45c0 2.2-.8 3-3 3H30c-2.2 0-3-.8-3-3V20c0-2.2.8-3 3-3h20c2.2 0 3 .8 3 3v40z"></path>
		<path class="ps02" d="M27 59V21h26v38H27zm25-37H28v36h24V22z"></path>
	</svg>
	<svg viewBox="-1 -1 102 102" width="102" height="102" id="play-button" y="482">
		<path fill="#F78119" d="M0 0h100v100H0z"></path>
		<path fill="#FFF" d="M37 30v40l33-20z"></path>
	</svg>
	<svg id="rotate" viewBox="-1 -1 82 82" width="82" height="82" y="584">
		<style>.r01{fill-rule:evenodd;clip-rule:evenodd;fill:#FFFFFF}</style>
		<path class="r01" d="M40 65v4l-8-5 8-5v4c12.7 0 23-10.3 23-23 0-.7 0-1.3-.1-2h2c.1.7.1 1.3.1 2 0 13.8-11.2 25-25 25zm4-25c0 2.2-1.8 4-4 4s-4-1.8-4-4 1.8-4 4-4 4 1.8 4 4zm-4-23c-12.7 0-23 10.3-23 23 0 1.4.1 2.7.4 4h-2c-.2-1.3-.3-2.6-.3-4 0-13.8 11.2-25 25-25v-4l8 5-8 5v-4z"></path>
	</svg>
	<svg id="search" opacity=".5" viewBox="-1 -1 22 22" width="23" height="23" y="666">
		<style>.st0{fill:#FFFFFF}</style>
		<path class="st0" d="M14.5 13h-.8l-.3-.3c1-1.1 1.6-2.6 1.6-4.2C15 4.9 12.1 2 8.5 2S2 4.9 2 8.5 4.9 15 8.5 15c1.6 0 3.1-.6 4.2-1.6l.3.3v.8l5 5 1.5-1.5-5-5zm-6 0C6 13 4 11 4 8.5S6 4 8.5 4 13 6 13 8.5 11 13 8.5 13z"></path>
	</svg>
	<svg viewBox="-1 -1 24 24" width="24" height="24" id="shopping-cart" y="689">
		<path fill="#FFF" d="M17.4 15H4L3 3H0V1h4l2 4h15l-3.6 10zM6 13h10l1-2H6v2zm0-6v2h11l1-2H6zm0 10c1.1 0 2 .9 2 2s-.9 2-2 2-2-.9-2-2 .9-2 2-2zm9 0c1.1 0 2 .9 2 2s-.9 2-2 2-2-.9-2-2 .9-2 2-2z"></path>
	</svg>
	<svg id="tablet" viewBox="-1 -1 82 82" width="82" height="82" y="713">
		<style>.t01,.t02{fill-rule:evenodd;clip-rule:evenodd;fill:#FFFFFF}.t02{opacity:.5}</style>
		<path class="t01" d="M68 17H12c-2.2 0-4 1.8-4 4v38c0 2.2 1.8 4 4 4h56c2.2 0 4-1.8 4-4V21c0-2.2-1.8-4-4-4zm2 40c0 2.2-1.8 4-4 4H14c-2.2 0-4-1.8-4-4V23c0-2.2 1.8-4 4-4h52c2.2 0 4 1.8 4 4v34z"></path>
		<path class="t02" d="M15 59V21h50v38H15zm49-37H16v36h48V22z"></path>
	</svg>
	<svg id="tablet-selected" viewBox="-1 -1 82 82" width="82" height="82" y="795">
		<style>.ts01,.ts02{fill-rule:evenodd;clip-rule:evenodd;fill:#f48427}.ts02{opacity:.5}</style>
		<path class="ts01" d="M68 17H12c-2.2 0-4 1.8-4 4v38c0 2.2 1.8 4 4 4h56c2.2 0 4-1.8 4-4V21c0-2.2-1.8-4-4-4zm2 40c0 2.2-1.8 4-4 4H14c-2.2 0-4-1.8-4-4V23c0-2.2 1.8-4 4-4h52c2.2 0 4 1.8 4 4v34z"></path>
		<path class="ts02" d="M15 59V21h50v38H15zm49-37H16v36h48V22z"></path>
	</svg>
	<svg id="three-dots" viewBox="-1 -1 15 15" width="15" height="15" y="877">
		<style>.st0{fill-rule:evenodd;clip-rule:evenodd;fill:#666}</style>
		<path class="st0" d="M1.5 5C2.3 5 3 5.7 3 6.5S2.3 8 1.5 8 0 7.3 0 6.5.7 5 1.5 5zM6.5 5C7.3 5 8 5.7 8 6.5S7.3 8 6.5 8 5 7.3 5 6.5 5.7 5 6.5 5zM11.5 5c.8 0 1.5.7 1.5 1.5S12.3 8 11.5 8 10 7.3 10 6.5 10.7 5 11.5 5z"></path>
	</svg>
</svg>