<svg version="1.1" id="Layer_1" xmlns="http://www.w3.org/2000/svg" xmlns:xlink="http://www.w3.org/1999/xlink" x="0px" y="0px"
	 viewBox="0 0 80 80" style="enable-background:new 0 0 80 80;" xml:space="preserve">
<style type="text/css">
	.t01{fill-rule:evenodd;clip-rule:evenodd;fill:white;}
	.t02{fill-rule:evenodd;clip-rule:evenodd;fill:#AFAFAF;}
</style>
<g>
	<g>
		<path class="t01" d="M68,17H12c-2.2,0-4,1.8-4,4v38c0,2.2,1.8,4,4,4h56c2.2,0,4-1.8,4-4V21C72,18.8,70.2,17,68,17z M70,57
			c0,2.2-1.8,4-4,4H14c-2.2,0-4-1.8-4-4V23c0-2.2,1.8-4,4-4h52c2.2,0,4,1.8,4,4V57z"/>
	</g>
</g>
<path class="t02" d="M15,59V21h50v38H15z M64,22H16v36h48V22z"/>
</svg>
