<svg version="1.1" id="layer_1" xmlns="http://www.w3.org/2000/svg" xmlns:xlink="http://www.w3.org/1999/xlink" x="0px" y="0px"
	 viewBox="0 0 13 13" style="enable-background:new 0 0 13 13;" xml:space="preserve">
<style type="text/css">
	.st0{fill-rule:evenodd;clip-rule:evenodd;fill:white;}
</style>
<g>
	<path class="st0" d="M1.5,5C2.3,5,3,5.7,3,6.5C3,7.3,2.3,8,1.5,8C0.7,8,0,7.3,0,6.5C0,5.7,0.7,5,1.5,5z"/>
	<path class="st0" d="M6.5,5C7.3,5,8,5.7,8,6.5C8,7.3,7.3,8,6.5,8S5,7.3,5,6.5C5,5.7,5.7,5,6.5,5z"/>
	<path class="st0" d="M11.5,5C12.3,5,13,5.7,13,6.5C13,7.3,12.3,8,11.5,8C10.7,8,10,7.3,10,6.5C10,5.7,10.7,5,11.5,5z"/>
</g>
</svg>
